<svg width="521" height="419" viewBox="0 0 521 419" fill="none" xmlns="http://www.w3.org/2000/svg">
<path d="M42.6153 296.5C29.7951 283.655 29.7951 262.486 42.6153 249.641C55.4355 236.796 76.5652 236.796 89.3854 249.641C102.206 262.486 102.206 283.655 89.3854 296.5C76.3278 309.345 55.4355 309.345 42.6153 296.5Z" fill="#FDFFFF"/>
<path d="M472.568 251.782C475.059 251.782 477.079 249.758 477.079 247.262C477.079 244.766 475.059 242.743 472.568 242.743C470.077 242.743 468.057 244.766 468.057 247.262C468.057 249.758 470.077 251.782 472.568 251.782Z" fill="#C9E3F4"/>
<path d="M453.1 236.321V232.99H449.776C448.115 232.99 446.927 231.801 446.927 230.136C446.927 228.471 448.115 227.282 449.776 227.282H453.1V223.952C453.1 222.287 454.287 221.097 455.949 221.097C457.611 221.097 458.798 222.287 458.798 223.952V227.282H462.122C463.784 227.282 464.971 228.471 464.971 230.136C464.971 231.801 463.784 232.99 462.122 232.99H458.798V236.321C458.798 237.986 457.611 239.175 455.949 239.175C454.525 239.175 453.1 237.986 453.1 236.321Z" fill="white"/>
<path d="M25.5217 323.379L28.6081 320.286L25.5217 317.194C24.0973 315.767 24.0973 313.626 25.5217 312.199C26.9462 310.772 29.0829 310.772 30.5074 312.199L33.5937 315.291L36.6801 312.199C38.1045 310.772 40.2413 310.772 41.6657 312.199C43.0902 313.626 43.0902 315.767 41.6657 317.194L38.5794 320.286L41.6657 323.379C43.0902 324.806 43.0902 326.947 41.6657 328.374C40.2413 329.801 38.1045 329.801 36.6801 328.374L33.5937 325.282L30.5074 328.374C29.0829 329.801 26.9462 329.801 25.5217 328.374C24.0973 326.947 24.0973 324.806 25.5217 323.379Z" fill="#C9E3F4"/>
<path d="M403.968 26.4029C401.831 15.4612 392.335 7.13592 380.702 7.13592C375.716 7.13592 371.205 8.5631 367.407 11.1796C363.371 4.51941 356.011 0 347.464 0C336.781 0 327.996 6.89805 324.91 16.6505C323.723 16.4126 322.773 16.4126 321.586 16.4126C309.716 16.4126 300.219 24.9757 298.32 36.3932C288.586 37.1068 280.989 45.1941 280.989 54.9466C280.989 65.4126 289.298 73.7378 299.744 73.7378H402.306C415.364 73.7378 425.81 63.2718 425.81 50.1893C425.81 37.5825 416.076 27.3543 403.968 26.4029Z" fill="#D2F4FF"/>
<path d="M263.427 96.1776H125.441V244.208H263.427V96.1776Z" fill="#FAF0F0" fill-opacity="0.2"/>
<path d="M263.427 260.098H122.096V273.479H263.427V260.098Z" fill="#EBFFF8"/>
<path d="M103.868 403.777H444.079C446.215 403.777 447.877 402.112 447.877 399.971C447.877 397.83 446.215 396.165 444.079 396.165H103.868C101.731 396.165 100.069 397.83 100.069 399.971C100.069 402.112 101.731 403.777 103.868 403.777Z" fill="#BAE5E5"/>
<path d="M274.092 388.078C276.229 388.078 278.128 386.413 278.603 384.272H357.898C358.373 386.413 360.273 388.078 362.409 388.078C365.021 388.078 367.158 385.937 367.158 383.32C367.158 378.801 363.359 374.995 358.848 374.995H277.891C273.38 374.995 269.581 378.801 269.581 383.32C269.344 385.937 271.481 388.078 274.092 388.078Z" fill="#536887"/>
<path d="M250.588 304.587H275.042C288.099 304.587 296.171 297.689 298.071 285.321C300.445 270.097 304.955 220.384 304.955 219.908C305.193 216.34 308.517 213.961 312.078 214.675H385.913C389.474 215.389 392.086 218.719 391.848 222.287C391.611 224.427 387.337 272.952 384.726 288.651C381.877 306.728 368.819 317.67 350.064 317.67H325.61H251.775C248.214 317.67 244.89 314.816 244.653 311.248C244.416 307.68 247.027 304.587 250.588 304.587Z" fill="#536887"/>
<path d="M363.359 230.136H317.538C316.826 230.136 316.351 229.66 316.351 228.947C316.351 228.233 316.826 227.757 317.538 227.757H363.359C364.071 227.757 364.546 228.233 364.546 228.947C364.546 229.66 364.071 230.136 363.359 230.136Z" fill="#617893"/>
<path d="M361.934 245.597H315.877C315.164 245.597 314.689 245.122 314.689 244.408C314.689 243.694 315.164 243.219 315.877 243.219H361.697C362.409 243.219 362.884 243.694 362.884 244.408C363.121 245.122 362.647 245.597 361.934 245.597Z" fill="#617893"/>
<path d="M360.272 260.821H314.452C313.74 260.821 313.265 260.345 313.265 259.631C313.265 258.918 313.74 258.442 314.452 258.442H360.272C360.985 258.442 361.459 258.918 361.459 259.631C361.459 260.345 360.985 260.821 360.272 260.821Z" fill="#617893"/>
<path d="M358.611 276.282H312.79C312.078 276.282 311.603 275.806 311.603 275.092C311.603 274.379 312.078 273.903 312.79 273.903H358.611C359.323 273.903 359.798 274.379 359.798 275.092C359.798 275.806 359.323 276.282 358.611 276.282Z" fill="#617893"/>
<path d="M325.61 317.67H350.064C368.819 317.67 381.877 306.728 384.726 288.651C387.1 272.952 391.611 224.427 391.848 222.287C392.085 218.719 389.474 215.389 385.913 214.675C382.352 213.961 379.028 216.34 378.79 219.908C378.79 220.384 374.28 270.097 371.906 285.321C370.006 297.689 361.697 304.588 348.877 304.588H324.423C320.862 304.588 318.25 307.442 318.488 311.01C318.725 314.816 322.049 317.67 325.61 317.67Z" fill="#293549"/>
<path d="M310.416 329.087H326.085C327.747 329.087 329.172 327.66 329.172 325.995V317.908H307.092V325.995C307.33 327.66 308.754 329.087 310.416 329.087Z" fill="#536887"/>
<path d="M325.61 329.087H310.891V374.044H325.61V329.087Z" fill="#C1D3EA"/>
<path d="M308.279 379.752H328.222V369.286C328.222 367.621 326.797 366.194 325.136 366.194H311.366C309.704 366.194 308.279 367.621 308.279 369.286V379.752Z" fill="#293549"/>
<path d="M298.545 388.078C300.682 388.078 302.581 386.413 303.056 384.272H333.682C334.157 386.413 336.057 388.078 338.193 388.078C340.805 388.078 342.941 385.937 342.941 383.32C342.941 378.801 339.143 374.995 334.632 374.995H302.344C297.833 374.995 294.035 378.801 294.035 383.32C293.797 385.937 295.934 388.078 298.545 388.078Z" fill="#293549"/>
<path d="M336.531 396.165C340.071 396.165 342.941 393.29 342.941 389.743C342.941 386.196 340.071 383.32 336.531 383.32C332.991 383.32 330.121 386.196 330.121 389.743C330.121 393.29 332.991 396.165 336.531 396.165Z" fill="#293549"/>
<path d="M339.618 396.165C343.158 396.165 346.028 393.29 346.028 389.743C346.028 386.196 343.158 383.32 339.618 383.32C336.077 383.32 333.208 386.196 333.208 389.743C333.208 393.29 336.077 396.165 339.618 396.165Z" fill="#536887"/>
<path d="M296.883 396.165C300.424 396.165 303.294 393.29 303.294 389.743C303.294 386.196 300.424 383.32 296.883 383.32C293.343 383.32 290.473 386.196 290.473 389.743C290.473 393.29 293.343 396.165 296.883 396.165Z" fill="#293549"/>
<path d="M299.97 396.165C303.51 396.165 306.38 393.29 306.38 389.743C306.38 386.196 303.51 383.32 299.97 383.32C296.43 383.32 293.56 386.196 293.56 389.743C293.56 393.29 296.43 396.165 299.97 396.165Z" fill="#536887"/>
<path d="M360.985 396.165C364.525 396.165 367.395 393.29 367.395 389.743C367.395 386.196 364.525 383.32 360.985 383.32C357.444 383.32 354.574 386.196 354.574 389.743C354.574 393.29 357.444 396.165 360.985 396.165Z" fill="#293549"/>
<path d="M364.071 396.165C367.611 396.165 370.481 393.29 370.481 389.743C370.481 386.196 367.611 383.32 364.071 383.32C360.531 383.32 357.661 386.196 357.661 389.743C357.661 393.29 360.531 396.165 364.071 396.165Z" fill="#536887"/>
<path d="M272.43 396.165C275.97 396.165 278.84 393.29 278.84 389.743C278.84 386.196 275.97 383.32 272.43 383.32C268.89 383.32 266.02 386.196 266.02 389.743C266.02 393.29 268.89 396.165 272.43 396.165Z" fill="#293549"/>
<path d="M275.516 396.165C279.057 396.165 281.926 393.29 281.926 389.743C281.926 386.196 279.057 383.32 275.516 383.32C271.976 383.32 269.106 386.196 269.106 389.743C269.106 393.29 271.976 396.165 275.516 396.165Z" fill="#536887"/>
<path d="M310.891 334.321L325.61 330.039V329.087H310.891V334.321Z" fill="#B2BFCE"/>
<path d="M307.33 322.903L329.171 318.859V317.67H307.33V322.903Z" fill="#293549"/>
<path d="M246.077 384.034C245.602 384.034 244.89 384.272 244.415 384.748C241.329 387.364 231.833 392.121 226.847 392.835C221.624 393.549 221.386 396.165 228.746 396.165C236.106 396.165 241.566 395.452 244.89 395.689C248.214 395.689 247.264 396.165 255.336 396.165C261.509 396.165 259.61 388.316 257.473 384.51C256.761 383.32 255.811 382.845 254.624 382.845L246.077 384.034Z" fill="#293549"/>
<path d="M281.452 370.476C280.977 370.714 280.502 371.189 280.027 371.665C277.89 374.995 271.243 380.942 265.782 382.369C260.797 383.796 261.272 387.364 268.394 386.65C275.754 385.699 280.502 382.845 283.588 381.893C286.675 380.942 285.962 381.655 293.797 379.277C299.732 377.374 295.459 370.476 292.135 367.621C291.185 366.67 289.998 366.432 288.811 366.908L281.452 370.476Z" fill="#293549"/>
<path d="M308.279 153.782C318.725 152.355 315.639 169.243 308.754 175.903C304.481 179.947 300.919 175.427 299.02 168.529C297.121 161.393 295.934 155.447 308.279 153.782Z" fill="#352B2A"/>
<path d="M329.171 189.461C329.171 194.219 328.459 199.927 325.848 203.971C322.524 209.204 321.812 210.393 321.812 210.631C320.625 212.534 318.488 213.723 316.114 213.723C314.927 213.723 313.74 213.486 312.79 212.772C309.704 210.869 308.754 206.825 310.416 203.733C310.416 203.733 310.891 202.782 314.689 196.835C315.402 195.884 315.639 193.981 315.876 191.84C316.114 188.748 315.876 185.418 315.639 183.039C315.164 179.471 317.538 176.141 321.099 175.665C324.661 175.19 327.984 177.568 328.459 181.136C328.697 182.325 329.171 185.656 329.171 189.461Z" fill="#FFD0C2"/>
<path d="M335.107 304.825C335.107 304.825 340.805 299.117 337.243 279.136H290.711C290.711 279.136 289.998 289.602 291.186 304.825H335.107Z" fill="#EBAA22"/>
<path d="M306.38 285.321C283.114 286.748 239.667 292.456 231.833 306.966C229.458 311.248 228.034 317.194 231.833 320.762C246.077 334.32 256.761 346.452 281.452 370.714C281.689 370.952 281.926 370.951 282.164 370.951L289.761 368.335C290.236 368.097 290.236 367.621 289.998 367.384C269.581 335.034 259.372 321.714 251.775 317.194C259.135 313.626 280.502 308.155 303.768 306.015C308.754 305.539 312.553 301.02 312.078 295.787C311.603 290.316 311.603 285.083 306.38 285.321Z" fill="#E08D22"/>
<path d="M321.812 283.18C269.344 286.51 261.746 293.884 259.372 296.976C257.473 299.354 256.523 302.209 256.998 305.301C258.66 316.956 252.012 358.82 247.027 383.558C246.789 384.272 247.264 384.748 247.976 384.985L256.286 386.175C256.761 386.175 257.473 385.937 257.473 385.461C269.344 352.16 275.754 332.655 275.516 309.345C285.013 307.204 308.279 305.539 327.747 305.063C335.107 304.825 340.092 296.262 334.157 288.651C331.308 284.845 326.56 282.942 321.812 283.18Z" fill="#EBAA22"/>
<path d="M306.617 203.733C300.682 219.908 290.711 247.262 289.761 251.782C289.524 253.209 288.811 254.398 287.624 255.35C287.624 255.35 287.624 255.35 287.387 255.588C286.675 256.301 285.488 256.539 284.538 256.777C284.063 256.777 283.588 256.777 283.113 256.777C279.315 256.777 275.279 252.733 256.761 213.486C255.574 210.631 256.761 207.539 259.372 206.112C262.221 204.923 265.308 206.112 266.732 208.728C271.718 219.432 277.653 231.088 281.926 238.937C286.675 224.903 294.747 203.02 296.171 199.69C296.409 199.214 296.646 198.5 297.121 198.024C298.545 196.122 301.157 195.408 303.293 196.359C304.243 196.835 305.193 197.311 305.905 198.262C307.092 199.927 307.33 202.068 306.617 203.733Z" fill="#3C7238"/>
<path d="M306.617 203.733C300.682 219.908 290.711 247.262 289.761 251.782C289.524 253.209 288.812 254.398 287.624 255.35C287.387 255.35 287.387 255.35 287.15 255.588C289.999 234.893 293.797 207.539 299.02 203.733C299.02 203.733 304.481 199.452 305.668 198.5C307.092 199.927 307.33 202.068 306.617 203.733Z" fill="#3C7238"/>
<path d="M345.078 200.879C344.366 204.447 343.653 208.728 342.941 213.486C341.992 218.956 341.279 224.903 340.33 231.088C337.956 248.689 336.056 267.956 336.769 279.136H290.236C290.236 279.136 293.085 215.626 297.358 198.738C297.833 196.835 299.732 195.408 301.869 195.408H340.33C343.416 195.408 345.79 198.024 345.078 200.879Z" fill="#3C7238"/>
<path d="M343.179 213.486C342.229 218.956 341.517 224.903 340.567 231.088L335.819 200.641L343.179 213.486Z" fill="#3C7238"/>
<path d="M350.301 258.918C341.992 258.918 329.409 258.204 309.941 255.588C306.855 255.112 304.718 252.495 305.193 249.403C305.668 246.311 308.279 244.17 311.365 244.646C328.459 246.787 348.877 248.452 356.949 247.738C354.1 239.651 344.603 220.622 336.056 204.447C334.632 201.83 335.581 198.5 338.43 197.073C341.042 195.646 344.366 196.597 345.79 199.452C354.574 215.864 369.057 244.17 368.819 251.544C368.819 253.447 367.869 255.112 366.445 256.301C365.495 257.015 363.121 258.918 350.301 258.918Z" fill="#3C7238"/>
<path d="M329.171 189.461C326.085 191.126 322.761 192.078 318.963 192.078C318.013 192.078 316.826 192.078 315.876 191.84C316.114 188.748 315.876 185.418 315.639 183.039C315.164 179.471 317.538 176.141 321.099 175.665C324.661 175.19 327.984 177.568 328.459 181.136C328.697 182.325 329.171 185.656 329.171 189.461Z" fill="#ED8C62"/>
<path d="M299.495 167.34C300.919 180.423 308.754 192.554 319.438 189.223C332.258 185.418 340.092 179.233 340.092 167.816C340.092 156.398 330.833 147.122 319.438 147.122C308.042 147.122 298.071 155.923 299.495 167.34Z" fill="#FFD0C2"/>
<path d="M310.653 255.825C308.991 255.825 307.329 255.112 306.38 253.685C304.006 250.592 301.632 249.879 301.632 249.879C298.545 249.879 297.358 247.5 294.509 244.408C291.423 240.84 292.135 236.083 295.221 236.083C295.934 236.083 308.991 239.175 314.927 247.024C316.826 249.403 316.351 252.971 313.977 254.874C313.027 255.35 311.84 255.825 310.653 255.825Z" fill="#FFD0C2"/>
<path d="M251.775 218.243C247.977 217.529 242.516 215.389 242.516 212.296C242.516 209.204 246.79 209.442 249.876 209.442C252.725 209.442 258.185 207.063 259.135 206.588C261.746 204.923 265.07 205.636 266.732 208.253C268.394 210.869 267.682 214.199 265.07 215.864C264.358 216.34 262.459 218.481 256.049 218.481L251.775 218.243Z" fill="#FFD0C2"/>
<path d="M334.869 155.685C336.769 153.306 337.006 149.976 332.733 146.646C329.171 143.792 316.114 140.937 303.056 146.646C299.495 148.311 295.934 146.646 295.934 146.646C295.934 146.646 293.56 158.063 308.042 158.777C322.524 159.728 334.869 155.685 334.869 155.685Z" fill="#352B2A"/>
<path d="M328.459 153.068C318.013 154.495 325.373 169.957 333.92 174.476C339.143 177.092 341.279 172.097 341.279 164.724C341.279 157.35 340.804 151.403 328.459 153.068Z" fill="#352B2A"/>
<path d="M342.229 172.573C341.992 174.952 340.805 177.092 338.905 178.52C336.769 180.185 333.682 178.282 333.92 175.665L334.394 168.529C334.632 165.913 337.718 164.486 339.618 166.389C341.279 168.054 342.229 170.194 342.229 172.573Z" fill="#FFD0C2"/>
<path d="M331.546 195.408C328.934 197.787 325.61 199.214 322.049 199.214C318.488 199.214 315.639 197.787 313.977 195.408H331.546Z" fill="#FFD0C2"/>
<path d="M511.266 116.437C510.316 110.015 504.856 105.258 498.208 105.258C497.496 105.258 497.021 105.258 496.309 105.495C494.647 100.025 489.662 96.2187 483.726 96.2187C478.978 96.2187 474.705 98.8352 472.331 102.641C470.194 101.214 467.582 100.262 464.733 100.262C458.323 100.262 452.863 105.02 451.676 111.204C444.791 111.68 439.33 117.389 439.33 124.287C439.33 131.66 445.266 137.607 452.625 137.607H510.554C516.252 137.607 521 132.85 521 127.141C521 121.432 516.727 116.913 511.266 116.437Z" fill="#FAFEFF"/>
<path d="M369.532 112.631C364.546 119.529 377.366 133.801 370.719 138.083C361.697 144.267 378.078 151.879 389.949 149.262C405.143 145.694 393.273 115.248 387.337 109.301C381.639 103.355 374.042 106.209 369.532 112.631Z" fill="#352B2A"/>
<path d="M396.359 165.437C392.798 171.146 392.086 172.097 392.086 172.335C391.373 173.525 389.949 174.476 388.524 174.476C387.812 174.476 387.1 174.238 386.388 173.762C384.488 172.573 383.776 169.957 384.963 168.054C384.963 168.054 385.438 167.102 389.237 161.156C390.661 158.777 391.136 154.02 390.898 149.976C390.898 148.073 390.661 146.17 390.424 144.981C390.186 142.602 391.611 140.699 393.985 140.224C396.359 139.986 398.258 141.413 398.733 143.792C398.733 144.267 398.97 145.694 399.208 147.597C399.683 152.355 399.683 160.442 396.359 165.437Z" fill="#FFD0C2"/>
<path d="M418.201 389.743L413.215 390.932C408.704 369.049 396.359 331.942 393.747 313.388C392.56 305.777 389.711 293.408 389.237 280.801C389.237 280.325 389.237 279.85 389.237 279.374C388.524 261.296 388.524 244.17 388.524 242.743C388.524 238.937 393.985 235.369 397.783 235.369C401.582 235.369 404.906 238.461 404.906 242.267C404.906 242.505 404.906 260.107 405.618 278.185C405.618 278.66 405.618 278.898 405.618 279.374C406.093 291.743 406.093 304.112 407.755 311.248C412.266 333.131 416.064 364.291 418.201 389.743Z" fill="#FFD0C2"/>
<path d="M388.524 389.743L382.826 389.981C382.826 389.505 373.805 331.704 370.956 313.388C369.769 306.253 368.819 294.121 368.107 281.753C368.107 281.515 368.107 281.039 368.107 280.801C366.92 262.248 366.208 243.932 366.208 242.505C365.97 238.699 369.057 235.369 372.855 235.131C376.654 234.893 382.114 237.51 382.114 241.554C382.114 241.791 382.589 261.058 383.776 279.612C383.776 280.325 383.776 281.039 383.776 281.515C384.488 293.408 383.301 304.112 384.726 311.01C389.474 332.893 388.287 349.306 388.524 389.743Z" fill="#FFD0C2"/>
<path d="M321.099 211.345C319.438 211.345 318.013 210.393 317.301 208.728C316.351 206.588 319.2 206.35 321.337 205.398C321.574 205.398 336.531 196.359 347.927 189.224C351.013 187.321 362.884 169.957 372.38 155.209C373.567 153.306 376.179 152.592 378.078 154.02C379.977 155.209 380.69 157.825 379.265 159.728C374.517 167.34 358.373 192.554 352.438 196.359C340.567 203.971 323.473 211.107 322.761 211.345C322.049 211.107 321.574 211.345 321.099 211.345Z" fill="#FFD0C2"/>
<path d="M399.208 147.359C396.834 148.549 393.985 149.5 390.898 149.738C390.898 147.835 390.661 145.932 390.423 144.743C390.186 142.364 391.61 140.461 393.985 139.986C396.359 139.748 398.258 141.175 398.733 143.554C398.97 144.029 399.208 145.457 399.208 147.359Z" fill="#ED8C62"/>
<path d="M371.431 125.476C373.093 136.418 378.791 148.073 388.05 147.835C401.582 147.597 412.266 137.369 412.266 125.476C412.266 113.583 402.769 104.068 390.899 104.068C379.265 104.068 369.769 113.821 371.431 125.476Z" fill="#FFD0C2"/>
<path d="M412.978 158.301C412.978 159.015 412.74 159.491 412.74 160.204C411.078 169.719 408.704 180.423 406.805 191.126C406.568 193.029 406.093 195.17 405.855 197.073C404.668 205.636 403.956 213.961 404.668 221.573C413.215 249.165 405.855 275.092 405.855 275.092L366.92 276.757C365.021 268.432 364.308 221.573 364.308 221.573C364.308 221.573 365.733 198.262 368.107 178.282C366.92 176.617 366.445 174.476 366.445 172.335C366.445 169.957 367.157 167.578 368.582 165.675C369.769 164.248 370.481 162.345 370.718 160.442C370.956 158.777 371.431 157.35 371.668 156.16C372.143 154.02 374.042 152.592 376.179 152.592H408.23C411.316 152.83 413.453 155.447 412.978 158.301Z" fill="#3A3C40"/>
<path d="M400.855 275.133L399.668 274.895C399.668 274.657 407.265 248.017 398.955 220.9L400.142 220.662C408.689 247.779 401.092 274.895 400.855 275.133Z" fill="#3C7238"/>
<path d="M398.971 221.573C398.496 214.675 398.971 206.825 400.395 197.073L401.582 197.311C400.158 206.825 399.683 214.913 400.395 221.573H398.971Z" fill="#3C7238"/>
<path d="M401.345 197.311L400.157 197.073C400.395 195.17 400.87 193.029 401.107 191.126L402.294 191.364C401.819 193.267 401.582 195.17 401.345 197.311Z" fill="#3C7238"/>
<path d="M402.294 191.126L401.107 190.889C402.057 184.466 403.481 178.282 404.668 172.097C405.618 167.816 406.33 163.772 407.042 159.966L408.23 160.204C407.517 164.01 406.805 168.054 405.855 172.335C404.668 178.52 403.244 184.942 402.294 191.126Z" fill="#3C7238"/>
<path d="M459.036 156.16C458.323 154.02 453.338 156.874 451.201 157.35C448.352 158.063 445.028 156.398 443.841 155.685C443.604 155.447 443.366 155.447 443.129 155.209H442.892C442.654 155.209 442.654 154.971 442.417 154.971H442.179C441.942 154.971 441.942 154.971 441.704 154.971H441.467C441.23 154.971 440.992 154.971 440.992 154.971H440.755C440.517 154.971 440.28 154.971 440.28 155.209C440.28 155.209 440.28 155.209 440.043 155.209C439.805 155.209 439.568 155.447 439.568 155.447C439.568 155.447 439.568 155.447 439.33 155.685C439.093 155.685 439.093 155.923 438.856 155.923L438.618 156.16L438.381 156.398C438.381 156.398 438.381 156.636 438.143 156.636C438.143 156.874 437.906 156.874 437.906 157.112C432.445 169.481 425.086 182.325 421.05 188.748C418.913 181.374 416.064 168.529 413.453 156.16C412.978 154.02 410.841 152.355 408.467 152.83C406.33 153.306 404.668 155.447 405.143 157.825C406.805 166.151 412.74 194.219 415.827 199.214C416.776 200.641 418.201 201.592 419.863 201.592C420.1 201.592 420.1 201.592 420.337 201.592C425.086 201.592 427.697 194.219 440.992 163.058C442.654 163.534 445.266 164.248 448.589 164.248C449.776 164.248 451.201 164.01 452.388 163.772C455 163.296 459.748 158.301 459.036 156.16Z" fill="#FFD0C2"/>
<path d="M314.214 212.058C312.315 212.058 309.941 211.821 307.329 211.345C305.193 210.869 300.207 209.68 301.632 208.015C303.293 205.874 305.905 203.495 308.754 203.257C315.401 202.306 316.589 204.209 319.675 204.685C322.761 205.16 325.135 203.971 325.848 206.112C326.56 208.253 324.423 210.156 322.286 211.107C321.812 211.107 318.963 212.058 314.214 212.058Z" fill="#FFD0C2"/>
<path d="M392.56 112.631C387.575 119.529 400.395 133.801 393.747 138.083C384.726 144.267 399.208 152.83 412.028 146.17C426.748 138.558 416.539 115.248 410.604 109.301C404.668 103.355 397.071 106.209 392.56 112.631Z" fill="#352B2A"/>
<path d="M401.582 110.966C393.035 115.486 376.416 120.481 371.193 114.534C368.582 111.68 374.517 100.976 390.424 101.214C406.33 101.452 409.179 106.923 401.582 110.966Z" fill="#352B2A"/>
<path d="M403.956 152.83C398.733 156.874 393.51 159.491 389.236 159.491C385.2 159.491 383.064 156.874 383.064 152.83H403.956Z" fill="#FFD0C2"/>
<path d="M411.791 388.078C411.316 388.078 411.078 388.316 410.604 388.553C408.467 390.218 402.057 393.549 398.733 394.024C395.172 394.5 394.934 396.403 399.92 396.403C404.906 396.403 407.755 396.165 409.891 396.165C412.028 396.165 411.553 396.403 419.15 396.403C423.424 396.403 420.575 391.17 419.15 388.553C418.676 387.84 417.726 387.364 416.776 387.602L411.791 388.078Z" fill="#352B2A"/>
<path d="M382.589 388.078C382.114 388.078 381.877 388.316 381.402 388.553C379.265 390.218 372.855 393.549 369.531 394.024C365.97 394.5 365.733 396.403 370.718 396.403C375.704 396.403 378.553 396.165 380.69 396.165C382.826 396.165 382.352 396.403 389.949 396.403C394.222 396.403 391.373 391.17 389.949 388.553C389.474 387.84 388.524 387.364 387.575 387.602L382.589 388.078Z" fill="#352B2A"/>
<path d="M112.652 267.481H438.856C441.942 267.481 444.316 265.102 444.316 262.01C444.316 258.918 441.942 256.539 438.856 256.539H112.652C109.566 256.539 107.191 258.918 107.191 262.01C107.191 265.102 109.566 267.481 112.652 267.481Z" fill="#BFD6E8"/>
<path d="M353.625 267.481H438.856C441.942 267.481 444.316 265.102 444.316 262.01C444.316 258.918 441.942 256.539 438.856 256.539H353.625C350.538 256.539 348.164 258.918 348.164 262.01C348.164 265.102 350.538 267.481 353.625 267.481Z" fill="white"/>
<path d="M425.561 267.481V390.694C425.561 393.786 427.935 396.165 431.021 396.165C434.107 396.165 436.482 393.786 436.482 390.694V267.481H425.561Z" fill="white"/>
<path d="M355.999 267.481V390.694C355.999 392.121 356.711 393.549 357.661 394.5C358.61 395.451 360.035 396.165 361.459 396.165C364.546 396.165 366.92 393.786 366.92 390.694V267.481H355.999Z" fill="white"/>
<path d="M355.999 267.481V390.694C355.999 392.121 356.711 393.549 357.661 394.5C358.61 395.451 360.035 396.165 361.459 396.165V267.481H355.999Z" fill="#BFD6E8"/>
<path d="M114.789 267.481V390.694C114.789 392.121 115.501 393.549 116.45 394.5C117.4 395.451 118.825 396.165 120.249 396.165C123.335 396.165 125.71 393.786 125.71 390.694V267.481H114.789Z" fill="white"/>
<path d="M184.588 267.481V390.694C184.588 393.786 186.962 396.165 190.048 396.165C193.134 396.165 195.509 393.786 195.509 390.694V267.481H184.588Z" fill="#BFD6E8"/>
<path d="M114.789 267.481V390.694C114.789 392.121 115.501 393.549 116.45 394.5C117.4 395.451 118.825 396.165 120.249 396.165V267.481H114.789Z" fill="#BFD6E8"/>
<path d="M436.482 267.481V271.049L425.561 278.66V267.481H436.482Z" fill="#BFD6E8"/>
<path d="M355.999 267.481H366.682V271.049L355.999 278.66V267.481Z" fill="#BFD6E8"/>
<path d="M184.588 267.481H195.271V271.049L184.588 278.66V267.481Z" fill="#A5BBCE"/>
<path d="M125.71 267.481V271.049L114.789 278.66V267.481H125.71Z" fill="#BFD6E8"/>
<path d="M267.207 254.16H211.652L196.221 211.107H251.775" fill="#4691B7"/>
<path d="M267.207 256.539H211.653C210.703 256.539 209.753 255.825 209.278 254.874L193.847 211.821C193.609 211.107 193.609 210.155 194.084 209.442C194.559 208.728 195.271 208.49 196.221 208.49H251.775C253.2 208.49 254.149 209.68 254.149 210.869C254.149 212.296 252.962 213.248 251.775 213.248H199.545L213.314 251.306H267.207C268.631 251.306 269.581 252.495 269.581 253.685C269.818 255.587 268.631 256.539 267.207 256.539Z" fill="#4691B7"/>
<path d="M303.531 256.539H267.207C266.257 256.539 265.308 255.825 264.833 254.874L249.401 212.058C248.926 210.869 249.638 209.442 250.825 208.966C252.012 208.49 253.437 209.204 253.912 210.393L268.869 251.782H303.293C304.718 251.782 305.667 252.971 305.667 254.16C305.905 255.587 304.955 256.539 303.531 256.539Z" fill="#79B1D3"/>
<path d="M231.595 240.364C228.983 241.554 225.185 240.84 221.861 238.461C220.199 237.272 219.012 235.845 218.062 234.418L221.861 233.466C223.048 235.369 225.185 236.796 227.084 236.796C227.559 236.796 228.034 236.796 228.509 236.558L231.595 240.364Z" fill="#B1ECF2"/>
<path d="M233.732 238.461C233.732 238.699 233.732 238.699 233.732 238.461L229.696 235.607C230.171 234.893 230.408 233.704 229.933 232.515C228.983 230.136 226.609 228.233 224.235 228.233C222.573 228.233 221.624 229.185 221.386 230.612L216.875 228.947C216.875 228.233 217.113 227.282 217.588 226.806C219.724 223.476 224.947 223.476 229.458 226.806C233.969 229.898 235.868 235.369 233.732 238.461Z" fill="white"/>
<path d="M153.249 206.825C149.926 205.874 148.501 208.253 148.739 210.155C149.213 212.772 150.638 213.248 147.077 215.389C144.465 217.054 143.753 220.622 146.839 222.524C151.113 224.903 146.602 227.044 145.652 228.947C143.753 233.228 146.839 234.418 152.3 236.558C157.76 238.699 161.796 237.748 165.595 234.18C168.444 231.563 170.106 228.709 168.444 226.092C166.07 222.287 162.034 224.903 163.696 221.335C164.645 219.194 164.645 215.151 159.66 214.675C154.437 214.437 157.998 208.253 153.249 206.825Z" fill="#5FD6AF"/>
<path d="M158.947 244.408C157.998 244.408 157.285 243.694 157.285 242.743C156.811 232.753 153.962 226.092 153.962 225.854C153.487 224.903 153.962 223.952 154.911 223.714C155.861 223.238 156.811 223.714 157.048 224.665C157.285 224.903 160.134 232.039 160.609 242.505C160.609 243.456 159.897 244.408 158.947 244.408Z" fill="#5FD6AF"/>
<path d="M173.429 199.927C177.703 198.976 179.127 202.306 178.415 204.447C177.465 207.777 175.804 207.777 179.84 211.107C182.926 213.486 183.163 218.005 179.365 219.67C173.904 222.287 179.127 225.141 180.077 227.757C181.976 233.466 177.94 234.18 171.055 236.321C164.17 238.461 159.185 236.558 155.149 231.801C152.062 228.233 150.4 224.665 152.775 221.573C156.098 217.291 160.609 220.859 159.185 216.102C158.235 213.248 158.71 208.253 164.883 208.49C170.818 208.966 167.257 201.117 173.429 199.927Z" fill="#8EEDCF"/>
<path d="M162.034 245.121H161.796C160.609 244.884 159.897 243.932 160.134 242.743C162.034 229.898 166.544 221.573 166.782 221.335C167.257 220.384 168.681 219.908 169.631 220.384C170.58 220.859 171.055 222.287 170.58 223.238C170.58 223.238 166.307 231.325 164.408 243.456C163.933 244.408 162.983 245.121 162.034 245.121Z" fill="#8EEDCF"/>
<path d="M165.832 229.66C170.343 236.083 171.767 240.602 166.07 241.078C160.372 241.554 153.249 227.282 157.523 224.427C160.372 222.524 163.695 226.568 165.832 229.66Z" fill="#5FD6AF"/>
<path d="M168.444 256.539H155.861C154.199 256.539 153.012 255.35 152.774 253.922L149.926 236.796C149.926 236.321 150.163 236.083 150.638 236.083H174.142C174.616 236.083 174.854 236.321 174.854 236.796L172.005 253.922C171.53 255.35 170.106 256.539 168.444 256.539Z" fill="#3A3C40"/>
<path d="M172.955 218.005C168.919 219.194 165.595 220.859 168.206 222.049C170.818 223.238 179.602 219.432 178.415 218.005C177.703 216.816 174.854 217.529 172.955 218.005Z" fill="#5FD6AF"/>
<path d="M173.192 205.398C172.242 208.015 171.293 209.204 170.106 207.777C168.919 206.35 171.293 201.592 172.955 202.068C174.142 202.544 173.667 204.209 173.192 205.398Z" fill="#5FD6AF"/>
<path d="M152.3 210.393C153.249 212.772 153.487 214.437 151.587 214.199C149.688 213.961 148.501 208.728 149.926 208.015C151.113 207.539 151.825 209.204 152.3 210.393Z" fill="#8EEDCF"/>
<path d="M147.789 222.049C146.127 220.622 145.415 219.432 146.839 218.719C148.501 218.243 151.588 221.811 150.401 222.762C149.926 223.714 148.501 222.762 147.789 222.049Z" fill="#8EEDCF"/>
<path d="M167.019 217.291C168.681 216.816 169.631 216.816 169.393 218.005C169.156 219.194 165.832 219.908 165.595 218.719C165.12 218.005 166.307 217.529 167.019 217.291Z" fill="#5FD6AF"/>
<path d="M51.6371 419H131.882C134.019 419 135.681 417.335 135.681 415.194C135.681 413.053 134.019 411.388 131.882 411.388H51.6371C49.5004 411.388 47.8385 413.053 47.8385 415.194C47.6011 417.335 49.5004 419 51.6371 419Z" fill="#BAE5E5"/>
<path d="M66.5941 402.35L68.9682 382.845L78.2273 381.418L73.7165 401.874L66.5941 402.35Z" fill="#D6DDEA"/>
<path d="M75.6157 399.257C76.0905 399.257 76.8028 399.495 77.2776 399.971C80.3639 402.587 84.1625 406.155 88.4359 408.058C93.4216 409.961 93.8964 411.388 86.5366 411.388C79.6517 411.388 77.7524 410.913 76.0905 410.913C73.7164 410.913 73.7164 411.388 66.3567 411.388C60.1839 411.388 62.0832 403.539 64.2199 399.733C64.9322 398.544 65.8818 398.068 67.0689 398.068L75.6157 399.257Z" fill="#3A809B"/>
<path d="M91.2847 402.35L93.6588 382.845L102.918 381.418L98.407 401.874L91.2847 402.35Z" fill="#D6DDEA"/>
<path d="M100.306 399.257C100.781 399.257 101.493 399.495 101.968 399.971C105.055 402.587 114.551 407.345 119.537 408.058C124.76 408.772 124.997 411.388 117.637 411.388C110.278 411.388 104.817 410.675 101.493 410.913C98.1697 410.913 99.1193 411.388 91.0473 411.388C84.8746 411.388 86.7739 403.539 88.9106 399.733C89.6229 398.544 90.5725 398.068 91.7596 398.068L100.306 399.257Z" fill="#4691B7"/>
<path d="M72.5293 154.971C72.5293 154.971 64.9321 191.126 63.5076 197.787C63.0328 200.403 61.1335 202.306 58.7594 202.782C58.2846 202.782 57.8098 203.02 57.0975 203.02H56.8601C54.2486 202.782 50.2126 198.738 41.9032 186.369C40.2413 183.991 38.342 180.898 36.2053 177.806C34.306 178.52 29.7952 180.185 27.4211 180.185C24.3347 180.185 20.5361 177.33 19.1117 174.238C17.6872 171.622 25.7592 173.049 28.8455 173.049C30.27 173.049 32.8815 170.67 34.306 169.957H34.5434C34.7808 169.957 35.0182 169.719 35.0182 169.719C35.2557 169.719 35.2557 169.719 35.4931 169.481C35.7305 169.481 35.9679 169.481 36.2053 169.243C36.4427 169.243 36.4427 169.243 36.6801 169.243C36.9175 169.243 37.1549 169.243 37.3924 169.243C37.3924 169.243 37.6298 169.243 37.8672 169.243C38.1046 169.243 38.342 169.243 38.5794 169.243H38.8168C39.0542 169.243 39.2917 169.481 39.5291 169.481H39.7665C40.0039 169.481 40.2413 169.719 40.4787 169.957L40.7161 170.194C40.9535 170.432 41.1909 170.432 41.1909 170.67L41.4284 170.908L41.6658 171.146C43.8025 174 45.9392 177.092 48.3133 179.947C50.6874 182.801 52.8241 185.656 54.7234 187.796C57.0975 174.952 61.8458 152.83 61.8458 152.83L72.5293 154.971Z" fill="#FFD0C2"/>
<path d="M73.7164 154.495C73.7164 154.495 66.1192 191.364 64.6947 198.024C64.2199 199.927 63.0329 201.83 61.6084 202.782C60.8962 203.257 60.1839 203.495 59.4717 203.733C58.7594 203.971 58.2846 203.971 57.5724 203.971C53.299 203.971 49.0256 200.165 40.2413 188.986L50.45 180.898C51.8745 182.801 53.299 184.228 54.2486 185.656C57.0976 172.573 61.371 151.879 61.371 151.879L62.7954 152.117L73.7164 154.495Z" fill="#DDB823"/>
<path d="M137.105 169.719C136.63 171.859 135.206 173.524 133.307 174.476C131.407 175.427 129.508 175.903 127.371 175.903C115.976 175.903 103.155 163.058 98.8819 158.539C96.7452 156.398 96.9827 152.83 99.1194 150.69C101.256 148.549 104.817 148.787 106.954 150.927C113.127 157.588 120.724 162.821 125.235 164.486C125.235 164.248 124.997 164.01 124.76 163.772C122.861 159.728 120.012 152.355 116.45 145.457C115.026 142.364 113.364 139.51 111.465 136.893C111.465 136.893 104.817 143.316 98.8819 141.413C92.9467 139.51 95.3208 138.558 95.3208 136.18C95.3208 133.088 97.6949 130.709 100.781 130.709C101.731 130.709 102.918 130.471 104.58 130.471L111.227 129.52H111.702C111.94 129.52 112.177 129.52 112.414 129.52H112.652C112.889 129.52 113.127 129.52 113.364 129.758H113.601C113.839 129.758 114.076 129.995 114.314 129.995C114.551 129.995 114.551 129.995 114.789 130.233C115.026 130.233 115.263 130.471 115.263 130.471C115.501 130.471 115.501 130.709 115.738 130.709C115.738 130.709 115.976 130.947 116.213 130.947C116.45 131.185 116.45 131.185 116.688 131.423C116.688 131.423 116.688 131.423 116.925 131.66C119.299 134.991 121.673 137.845 123.81 140.937C125.235 143.078 126.659 144.981 127.846 146.884C128.558 147.835 129.033 148.549 129.508 149.5C129.508 149.738 129.745 149.738 129.745 149.976C130.695 151.403 131.645 153.068 132.357 154.495C132.832 155.209 133.069 155.923 133.544 156.636C134.256 158.063 134.969 159.491 135.443 160.68C135.918 161.869 136.393 163.058 136.63 164.01C136.63 164.248 136.63 164.248 136.63 164.248C136.868 164.724 136.868 165.199 136.868 165.437C136.868 165.913 137.105 166.151 137.105 166.626C137.343 167.816 137.343 169.005 137.105 169.719Z" fill="#FFD0C2"/>
<path d="M93.1841 165.675C92.2345 166.389 91.0474 166.626 89.8603 166.626C87.7236 166.626 85.5869 165.437 84.1625 163.534C84.1625 163.534 83.4502 162.345 80.1265 157.112C76.8027 151.641 76.5653 143.554 77.0401 138.559C77.0401 138.083 77.0401 137.607 77.0401 137.131C77.2775 135.942 77.2775 134.991 77.2775 134.515C77.7523 130.947 81.0761 128.568 84.6373 129.044C88.1985 129.52 90.5726 132.85 90.0978 136.418C89.8603 138.321 89.6229 140.461 89.6229 142.602C89.6229 142.84 89.6229 143.316 89.6229 143.554C89.6229 144.029 89.6229 144.267 89.6229 144.743C89.8603 147.122 90.0978 149.262 90.81 150.452C94.6086 156.398 95.0834 157.35 95.0834 157.35C97.2201 159.728 96.2705 163.772 93.1841 165.675Z" fill="#FFD0C2"/>
<path d="M71.1048 267.719C71.1048 267.719 65.407 257.253 69.2055 237.51H115.501C115.501 237.51 116.213 252.733 115.026 267.719H71.1048Z" fill="#293549"/>
<path d="M79.1769 254.636C73.9538 254.636 69.443 255.825 69.2056 260.821C69.2056 261.296 73.0042 311.723 68.4933 330.277C63.5077 350.971 66.3566 393.073 66.3566 393.786L77.0402 394.976C77.0402 394.5 84.3999 348.354 85.8244 330.753C87.4863 311.486 91.5223 266.767 91.5223 264.864C91.7597 259.631 84.3999 254.636 79.1769 254.636Z" fill="#293549"/>
<path d="M115.026 266.529C115.263 261.296 111.227 257.015 106.004 257.015C100.781 256.777 93.1841 260.821 92.9467 266.054C92.9467 267.719 96.7453 311.248 97.2201 324.092C93.8963 337.888 92.4718 378.801 89.1481 394.5L101.493 396.641C101.968 394.262 114.551 344.311 114.076 322.665C113.839 305.301 115.026 267.005 115.026 266.529Z" fill="#293549"/>
<path d="M104.817 119.529C104.817 130.947 99.8317 141.651 86.5367 141.651C75.1409 141.651 65.8818 132.374 65.8818 120.957C65.8818 109.539 75.1409 100.262 86.5367 100.262C97.9324 100.262 104.817 108.112 104.817 119.529Z" fill="#FFD0C2"/>
<path d="M60.8962 153.782C64.22 172.335 70.3927 218.719 68.9682 237.51H115.263C115.263 237.51 112.415 168.529 108.141 151.879C107.666 149.976 105.767 148.549 103.63 148.549H65.407C62.5581 148.311 60.4214 150.927 60.8962 153.782Z" fill="#DDB823"/>
<path d="M89.1481 101.69C93.4216 102.879 93.8964 108.35 94.1338 113.345C95.0834 122.146 85.587 137.607 76.0905 136.18C66.594 134.515 59.4717 126.19 59.4717 114.296C59.4717 106.209 66.3566 102.403 73.0042 101.452C77.0401 100.738 84.6373 100.262 89.1481 101.69Z" fill="#3A3C40"/>
<path d="M127.846 176.855C115.976 176.855 102.681 163.772 98.4072 159.491L107.904 150.69C112.889 155.923 118.825 160.442 123.335 162.821C121.674 159.966 119.062 155.447 114.789 149.262L125.472 141.889C136.631 158.539 139.954 165.437 138.292 170.908C137.58 173.287 135.918 175.19 133.544 176.141C131.645 176.617 129.746 176.855 127.846 176.855Z" fill="#DDB823"/>
<path d="M86.2992 121.67C86.2992 123.811 87.2488 125.714 88.9107 127.141C90.81 128.568 93.4215 127.379 93.4215 125V118.578C93.4215 116.199 90.5726 114.772 88.9107 116.437C87.2488 117.626 86.2992 119.529 86.2992 121.67Z" fill="#FFD0C2"/>
<path d="M93.4214 93.6022C78.4645 91.9372 68.0184 95.5051 64.4572 100.262C61.3709 104.306 63.745 108.35 67.781 110.015C67.781 110.015 78.9393 111.442 94.3711 111.204C102.206 110.966 106.479 105.971 107.666 103.355C109.091 98.8352 104.342 94.7915 93.4214 93.6022Z" fill="#3A3C40"/>
<path d="M84.2794 241.64H72.4132L71.5098 242.493H83.376L84.2794 241.64Z" fill="#687C99"/>
<path d="M99.0592 395.977L97.9004 395.743C97.9004 395.274 105.549 365.243 107.171 353.277C108.561 343.423 110.416 325.358 110.416 318.789C110.416 311.046 111.111 262.95 111.111 262.481C111.343 255.208 111.111 237.612 111.111 237.377H112.27C112.27 237.612 112.501 255.442 112.27 262.481C112.27 262.95 111.574 310.812 111.574 318.789C111.574 325.123 109.488 343.423 108.33 353.277C106.707 365.477 99.0592 395.508 99.0592 395.977Z" fill="#687C99"/>
<path d="M16.5001 162.821C11.5145 157.825 11.5145 149.5 16.5001 144.267C21.4857 139.272 29.7952 139.272 35.0182 144.267C40.0039 149.262 40.0039 157.588 35.0182 162.821C29.7952 167.816 21.7232 167.816 16.5001 162.821ZM30.0326 149.262C27.6584 146.884 23.6224 146.884 21.2483 149.262C18.8742 151.641 18.8742 155.685 21.2483 158.063C23.6224 160.442 27.6584 160.442 30.0326 158.063C32.6441 155.685 32.6441 151.641 30.0326 149.262Z" fill="#C2EFD4"/>
<path d="M33.1189 137.607C30.9822 135.466 30.9822 132.136 33.1189 129.995C35.2556 127.855 38.5794 127.855 40.7161 129.995C42.8528 132.136 42.8528 135.466 40.7161 137.607C38.8168 139.748 35.2556 139.748 33.1189 137.607Z" fill="#F4CEC9"/>
<path d="M1.06835 162.345C-0.356118 160.918 -0.356118 158.777 1.06835 157.588C2.49282 156.16 4.62953 156.16 5.81659 157.588C7.24106 159.015 7.24106 161.156 5.81659 162.345C4.62953 163.772 2.49282 163.772 1.06835 162.345Z" fill="#F4CEC9"/>
<g opacity="0.7">
<path d="M219.037 183.804C218.697 184.655 218.527 185.336 218.527 185.336C218.187 180.399 212.404 180.909 212.404 180.909H164.272V190.614H216.656L219.547 184.825L219.037 183.804Z" fill="#F9F0DF"/>
<path d="M218.527 185.166C218.527 185.166 218.867 184.485 219.037 183.633L216.656 179.036H164.272V180.739H212.404C212.404 180.739 218.187 180.228 218.527 185.166Z" fill="#CDBFAB"/>
<path d="M224.82 166.267H184.001L163.932 176.993C163.421 177.164 163.081 177.504 163.081 178.015C163.081 178.696 163.592 179.207 164.272 179.207H212.914L226.521 166.608C225.5 166.267 224.82 166.267 224.82 166.267Z" fill="#333644"/>
<path d="M164.272 182.952H212.574C212.744 182.952 212.914 182.782 212.914 182.612C212.914 182.442 212.744 182.271 212.574 182.271H164.272V182.952Z" fill="#C3B6A1"/>
<path d="M164.272 185.676H212.574C212.744 185.676 212.914 185.506 212.914 185.336C212.914 185.166 212.744 184.995 212.574 184.995H164.272V185.676Z" fill="#C3B6A1"/>
<path d="M164.272 188.23H212.574C212.744 188.23 212.914 188.06 212.914 187.89C212.914 187.72 212.744 187.549 212.574 187.549H164.272V188.23Z" fill="#C3B6A1"/>
<path d="M226.521 166.608C225.84 166.267 224.82 166.267 224.82 166.267H221.588H213.765L179.069 172.737L205.431 179.036H212.744C215.806 179.036 218.527 181.59 218.527 184.825C218.527 187.89 215.976 190.614 212.744 190.614H164.272C163.592 190.614 163.081 191.125 163.081 191.806C163.081 192.487 163.592 192.998 164.272 192.998H212.914H213.084C213.084 192.998 213.084 192.998 213.254 192.998C215.636 192.998 217.677 191.806 219.037 190.103C221.758 187.209 230.773 177.845 231.453 174.95C232.813 169.332 228.902 167.289 226.521 166.608Z" fill="#201F2F"/>
<path d="M207.131 184.825H209.343C209.343 184.825 208.152 193.168 209.172 197.084C209.172 197.084 207.642 196.062 207.642 194.53C207.642 194.53 207.812 195.892 206.961 197.084C207.131 197.084 205.771 192.827 207.131 184.825Z" fill="#333644"/>
<path d="M207.132 184.825L206.792 187.209H209.003L209.343 184.825H207.132Z" fill="#201F2F"/>
<path d="M195.396 115.19C195.396 116.552 196.417 117.574 197.777 117.574V112.636C196.417 112.806 195.396 113.828 195.396 115.19Z" fill="#953F2C"/>
<path d="M200.158 115.19C200.158 113.828 199.138 112.806 197.777 112.806V117.744C199.138 117.574 200.158 116.552 200.158 115.19Z" fill="#65251A"/>
<path d="M197.777 151.455H196.077V151.285C195.566 151.966 191.484 158.435 196.077 165.927H197.777V151.455Z" fill="#65251A"/>
<path d="M199.478 166.267H197.777H199.478C199.478 166.097 199.478 166.097 199.478 166.267Z" fill="#461711"/>
<path d="M199.648 151.625C199.648 151.455 199.648 151.455 199.648 151.625C199.478 151.625 199.478 151.455 199.478 151.455H197.777V166.097H199.478C199.478 166.097 199.478 165.927 199.648 165.927V166.097V165.927C204.07 158.776 200.329 152.647 199.648 151.625Z" fill="#461711"/>
<path d="M197.777 151.455H199.478C199.478 151.455 199.478 151.455 199.648 151.625V151.455H197.777Z" fill="#461711"/>
<path d="M197.607 151.455H197.777V148.731H195.906V151.455H197.607Z" fill="#FFC200"/>
<path d="M197.777 151.455H199.478V148.731H197.777V151.455Z" fill="#F09800"/>
<path d="M197.777 166.267H181.96C181.11 166.267 180.429 166.948 180.429 167.8V168.821H197.777V166.267Z" fill="#65251A"/>
<path d="M182.3 169.672H180.429C179.579 169.672 179.069 170.353 179.069 171.205V172.567H197.777V169.502H182.3V169.672Z" fill="#461711"/>
<path d="M197.777 169.162H180.429V169.672H197.777V169.162Z" fill="#FFC200"/>
<path d="M197.777 168.821H180.429V169.162H197.777V168.821Z" fill="#FFC200"/>
<path d="M215.125 168.821V167.8C215.125 166.948 214.445 166.267 213.594 166.267H197.947V168.821H215.125Z" fill="#461711"/>
<path d="M216.486 171.205C216.486 170.353 215.806 169.672 215.125 169.672H213.254H197.777V172.737H216.486V171.205Z" fill="#300B08"/>
<path d="M197.777 168.821V169.162V169.672H215.125V169.162V168.821H197.777Z" fill="#F09800"/>
<path d="M199.648 125.916H197.777V148.731H199.648V125.916Z" fill="#65251A"/>
<path d="M197.777 125.916V122.171V118.595H195.906L194.376 125.916H195.906V148.731H197.777V125.916Z" fill="#953F2C"/>
<path d="M199.478 118.595H197.607V122C197.777 122 197.947 122 197.947 122H197.607V125.746H199.478H201.009L199.478 118.595Z" fill="#65251A"/>
<path d="M196.927 122.171C196.927 121.66 197.267 121.319 197.777 121.319V120.638C196.927 120.638 196.247 121.319 196.247 122.171C196.247 123.022 196.927 123.703 197.777 123.703V123.022C197.267 123.022 196.927 122.681 196.927 122.171Z" fill="#FFC200"/>
<path d="M199.308 122.171C199.308 121.319 198.628 120.638 197.777 120.638V121.319C198.288 121.319 198.628 121.66 198.628 122.171C198.628 122.681 198.288 123.022 197.777 123.022V123.703C198.628 123.703 199.308 123.022 199.308 122.171Z" fill="#F09800"/>
<path d="M192.675 117.233C192.335 117.233 191.995 117.574 191.995 117.914C191.995 118.255 192.335 118.595 192.675 118.595H197.777V117.233H192.675Z" fill="#65251A"/>
<path d="M192.675 125.916C192.335 125.916 191.995 126.257 191.995 126.597C191.995 126.938 192.335 127.278 192.675 127.278H197.777V125.916H192.675Z" fill="#65251A"/>
<path d="M203.56 117.914C203.56 117.574 203.22 117.233 202.88 117.233H197.777V118.595H202.88C203.22 118.595 203.56 118.255 203.56 117.914Z" fill="#461711"/>
<path d="M203.56 126.597C203.56 126.257 203.22 125.916 202.88 125.916H197.777V127.278H202.88C203.22 127.278 203.56 126.938 203.56 126.597Z" fill="#461711"/>
<path d="M201.009 127.278C201.009 127.278 199.648 127.278 199.648 128.981V127.278H201.009Z" fill="#65251A"/>
<path d="M194.546 127.278C194.546 127.278 195.906 127.278 195.906 128.981V127.278H194.546Z" fill="#953F2C"/>
<path d="M197.777 127.619C193.866 127.619 188.763 130.854 184.511 131.535C179.749 132.386 177.538 128.64 175.497 128.811C174.477 128.981 174.477 130.513 175.497 130.513C176.347 130.513 177.368 131.024 178.388 131.875C181.45 134.77 185.362 134.259 190.634 132.386C193.695 131.364 196.247 131.194 197.777 131.194V127.619Z" fill="#953F2C"/>
<path d="M175.837 130.002C176.025 130.002 176.177 129.85 176.177 129.662C176.177 129.474 176.025 129.321 175.837 129.321C175.649 129.321 175.497 129.474 175.497 129.662C175.497 129.85 175.649 130.002 175.837 130.002Z" fill="#65251A"/>
<path d="M170.395 154.179L175.837 132.046V129.492C175.667 129.492 175.497 129.662 175.327 129.832L169.204 154.519C169.204 154.69 169.204 154.86 169.374 154.86C169.544 155.03 169.544 155.03 169.714 155.03H175.837V154.009H170.395V154.179Z" fill="#4E4E4E"/>
<path d="M182.3 154.86C182.47 154.69 182.47 154.519 182.47 154.519L176.347 129.832C176.347 129.662 176.177 129.492 175.837 129.492V132.046L181.28 154.179H175.837V155.2H181.96C181.96 155.03 182.13 155.03 182.3 154.86Z" fill="#303030"/>
<path d="M168.354 154.179C168.013 154.179 167.673 154.69 167.673 155.371C168.184 159.457 171.585 162.692 175.837 162.692V154.179H168.354Z" fill="#FFC200"/>
<path d="M184.001 155.2C184.001 154.69 183.831 154.009 183.321 154.009H175.837V162.522C179.919 162.692 183.321 159.457 184.001 155.2Z" fill="#F09800"/>
<path d="M168.184 153.328C168.014 153.328 167.844 153.498 167.844 153.668C167.844 153.838 168.014 154.009 168.184 154.009H175.837V153.157H168.184V153.328Z" fill="#65251A"/>
<path d="M183.831 153.668C183.831 153.498 183.661 153.328 183.491 153.328H175.837V154.179H183.491C183.661 154.179 183.831 154.009 183.831 153.668Z" fill="#461711"/>
<path d="M197.777 127.619C201.689 127.619 206.791 130.854 211.043 131.535C215.806 132.386 218.017 128.64 220.058 128.811C221.078 128.981 221.078 130.513 220.058 130.513C219.207 130.513 218.187 131.024 217.166 131.875C214.105 134.77 210.193 134.259 204.921 132.386C201.859 131.364 199.308 131.194 197.777 131.194V127.619Z" fill="#65251A"/>
<path d="M219.717 130.002C219.905 130.002 220.058 129.85 220.058 129.662C220.058 129.474 219.905 129.321 219.717 129.321C219.529 129.321 219.377 129.474 219.377 129.662C219.377 129.85 219.529 130.002 219.717 130.002Z" fill="#65251A"/>
<path d="M225.33 154.179L219.887 132.046V129.492C220.058 129.492 220.228 129.662 220.398 129.832L226.521 154.519C226.521 154.69 226.521 154.86 226.35 154.86C226.18 155.03 226.18 155.03 226.01 155.03H219.887V154.009H225.33V154.179Z" fill="#4E4E4E"/>
<path d="M213.254 154.86C213.254 154.86 213.254 154.69 213.254 154.519L219.377 129.832C219.377 129.662 219.547 129.492 219.887 129.492V132.046L214.445 154.179H219.887V155.2H213.765C213.595 155.03 213.424 155.03 213.254 154.86Z" fill="#303030"/>
<path d="M227.201 154.179C227.541 154.179 227.881 154.69 227.881 155.371C227.371 159.457 223.969 162.692 219.717 162.692V154.179H227.201Z" fill="#F09800"/>
<path d="M211.724 155.2C211.724 154.69 211.894 154.009 212.404 154.009H219.887V162.522C215.635 162.692 212.234 159.457 211.724 155.2Z" fill="#FFC200"/>
<path d="M227.371 153.328C227.541 153.328 227.711 153.498 227.711 153.668C227.711 153.838 227.541 154.009 227.371 154.009H219.717V153.157H227.371V153.328Z" fill="#65251A"/>
<path d="M211.724 153.668C211.724 153.498 211.894 153.328 212.064 153.328H219.717V154.179H212.064C211.894 154.179 211.724 154.009 211.724 153.668Z" fill="#461711"/>
<path d="M197.777 136.642C195.396 136.642 193.355 134.77 193.355 132.216C193.355 131.875 193.355 131.535 193.525 131.194H192.505C192.335 131.194 192.165 131.194 192.165 131.194C192.165 131.535 191.995 131.875 191.995 132.216C191.995 135.451 194.546 138.005 197.777 138.005V136.642Z" fill="#953F2C"/>
<path d="M203.56 132.386C203.56 132.046 203.56 131.705 203.39 131.365H201.859C202.029 131.705 202.029 132.046 202.029 132.386C202.029 134.77 200.158 136.642 197.777 136.813V138.175C201.009 138.175 203.56 135.451 203.56 132.386Z" fill="#65251A"/>
</g>
</svg>
